<svg width="1280" height="484" xmlns="http://www.w3.org/2000/svg" xmlns:xlink="http://www.w3.org/1999/xlink" overflow="hidden"><defs><clipPath id="clip0"><rect x="0" y="0" width="1280" height="484"/></clipPath><clipPath id="clip1"><rect x="-5" y="16" width="1290" height="301"/></clipPath><clipPath id="clip2"><rect x="-5" y="16" width="1291" height="301"/></clipPath><clipPath id="clip3"><rect x="-5" y="16" width="1477" height="335"/></clipPath><clipPath id="clip4"><rect x="872" y="339" width="408" height="50"/></clipPath><clipPath id="clip5"><rect x="872" y="339" width="408" height="50"/></clipPath><clipPath id="clip6"><rect x="291" y="37" width="1568" height="356"/></clipPath></defs><g clip-path="url(#clip0)"><rect x="0" y="0" width="1280" height="484.167" fill="#FFFFFF"/><g clip-path="url(#clip1)"><g clip-path="url(#clip2)"><g clip-path="url(#clip3)"><g><path d="M1.18952e-13 0 639.162 0 639.162 334.552 2.72259e-05 334.552Z" stroke="#FFFFFF" stroke-width="1.98873" stroke-linecap="round" stroke-linejoin="round" stroke-miterlimit="10" fill="#FFFFFF" transform="matrix(1.00292 0 0 1 -5 16.0055)"/></g><g><path d="M34.4775 10.1853 628.977 10.1853 628.977 246.788 34.4775 246.788Z" fill="#BAE1FF" transform="matrix(1.00292 0 0 1 -5 16.0055)"/><path d="M160.715 225.488 337.247 225.488 337.247 244.409 160.715 244.409Z" fill="#00A36C" transform="matrix(1.00292 0 0 1 -5 16.0055)"/><path d="M221.139 201.828 337.229 201.828 337.229 220.749 221.139 220.749Z" fill="#00A36C" transform="matrix(1.00292 0 0 1 -5 16.0055)"/><path d="M288.012 178.168 337.229 178.168 337.229 197.088 288.012 197.088Z" fill="#00A36C" transform="matrix(1.00292 0 0 1 -5 16.0055)"/><path d="M294.555 154.507 337.229 154.507 337.229 173.428 294.555 173.428Z" fill="#00A36C" transform="matrix(1.00292 0 0 1 -5 16.0055)"/><path d="M296.543 130.847 337.247 130.847 337.247 149.768 296.543 149.768Z" fill="#00A36C" transform="matrix(1.00292 0 0 1 -5 16.0055)"/><path d="M307.639 107.187 337.229 107.187 337.229 126.108 307.639 126.108Z" fill="#00A36C" transform="matrix(1.00292 0 0 1 -5 16.0055)"/><path d="M308.123 83.5265 337.229 83.5265 337.229 102.447 308.123 102.447Z" fill="#00A36C" transform="matrix(1.00292 0 0 1 -5 16.0055)"/><path d="M308.123 59.8663 337.229 59.8663 337.229 78.787 308.123 78.787Z" fill="#00A36C" transform="matrix(1.00292 0 0 1 -5 16.0055)"/><path d="M308.123 36.206 337.229 36.206 337.229 55.1268 308.123 55.1268Z" fill="#00A36C" transform="matrix(1.00292 0 0 1 -5 16.0055)"/><path d="M337.229 12.5457 366.316 12.5457 366.316 31.4665 337.229 31.4665Z" fill="#FF7F50" transform="matrix(1.00292 0 0 1 -5 16.0055)"/><text font-family="Arial,Arial_MSFontService,sans-serif" font-weight="400" font-size="6" transform="matrix(1.86405 0 0 1.85862 202.73 42)">Plant</text><text font-family="Arial,Arial_MSFontService,sans-serif" font-weight="400" font-size="6" transform="matrix(1.86405 0 0 1.85862 226.962 42)">-</text><text font-family="Arial,Arial_MSFontService,sans-serif" font-weight="400" font-size="6" transform="matrix(1.86405 0 0 1.85862 230.69 42)">pathogen interaction</text><text font-family="Arial,Arial_MSFontService,sans-serif" font-weight="400" font-size="6" transform="matrix(1.86405 0 0 1.85862 333.213 255)">Ribosome biogenesis in eukaryotes</text><text font-family="Arial,Arial_MSFontService,sans-serif" font-weight="400" font-size="6" transform="matrix(1.86405 0 0 1.85862 333.213 232)">Photosynthesis</text><text font-family="Arial,Arial_MSFontService,sans-serif" font-weight="400" font-size="6" transform="matrix(1.86405 0 0 1.85862 333.213 208)">Spliceosome</text><text font-family="Arial,Arial_MSFontService,sans-serif" font-weight="400" font-size="6" transform="matrix(1.86405 0 0 1.85862 333.213 184)">Mismatch repair</text><text font-family="Arial,Arial_MSFontService,sans-serif" font-weight="400" font-size="6" transform="matrix(1.86405 0 0 1.85862 333.213 161)">Valine</text><text font-family="Arial,Arial_MSFontService,sans-serif" font-weight="400" font-size="6" transform="matrix(1.86405 0 0 1.85862 368.63 161)">,</text><text font-family="Arial,Arial_MSFontService,sans-serif" font-weight="400" font-size="6" transform="matrix(1.86405 0 0 1.85862 376.086 161)">leucine and isoleucine biosynthesis</text><text font-family="Arial,Arial_MSFontService,sans-serif" font-weight="400" font-size="6" transform="matrix(1.86405 0 0 1.85862 333.213 137)">Lysine biosynthesis</text><text font-family="Arial,Arial_MSFontService,sans-serif" font-weight="400" font-size="6" transform="matrix(1.86405 0 0 1.85862 333.213 113)">Biosynthesis of amino acids</text><text font-family="Arial,Arial_MSFontService,sans-serif" font-weight="400" font-size="6" transform="matrix(1.86405 0 0 1.85862 333.213 90)">Base excision repair</text><text font-family="Arial,Arial_MSFontService,sans-serif" font-weight="400" font-size="6" transform="matrix(1.86405 0 0 1.85862 333.213 66)">Aminoacyl</text><text font-family="Arial,Arial_MSFontService,sans-serif" font-weight="400" font-size="6" transform="matrix(1.86405 0 0 1.85862 389.135 66)">-</text><text font-family="Arial,Arial_MSFontService,sans-serif" font-weight="400" font-size="6" transform="matrix(1.86405 0 0 1.85862 392.863 66)">tRNA biosynthesis</text></g><g><path d="M61.4833 252.066 61.4833 246.788" stroke="#000000" stroke-width="1.98873" stroke-linejoin="round" stroke-miterlimit="10" fill="none" transform="matrix(1.00292 0 0 1 -5 16.0055)"/><path d="M282.083 252.066 282.083 246.788" stroke="#000000" stroke-width="1.98873" stroke-linejoin="round" stroke-miterlimit="10" fill="none" transform="matrix(1.00292 0 0 1 -5 16.0055)"/><path d="M502.683 252.066 502.683 246.788" stroke="#000000" stroke-width="1.98873" stroke-linejoin="round" stroke-miterlimit="10" fill="none" transform="matrix(1.00292 0 0 1 -5 16.0055)"/><text font-family="Arial,Arial_MSFontService,sans-serif" font-weight="400" font-size="8" transform="matrix(1.86405 0 0 1.85862 43.6144 283)">12</text><text font-family="Arial,Arial_MSFontService,sans-serif" font-weight="400" font-size="8" transform="matrix(1.86405 0 0 1.85862 58.5268 283)">.</text><text font-family="Arial,Arial_MSFontService,sans-serif" font-weight="400" font-size="8" transform="matrix(1.86405 0 0 1.85862 62.2549 283)">5</text><text font-family="Arial,Arial_MSFontService,sans-serif" font-weight="400" font-size="8" transform="matrix(1.86405 0 0 1.85862 268.587 283)">2</text><text font-family="Arial,Arial_MSFontService,sans-serif" font-weight="400" font-size="8" transform="matrix(1.86405 0 0 1.85862 276.043 283)">.</text><text font-family="Arial,Arial_MSFontService,sans-serif" font-weight="400" font-size="8" transform="matrix(1.86405 0 0 1.85862 279.771 283)">5</text><text font-family="Arial,Arial_MSFontService,sans-serif" font-weight="400" font-size="8" transform="matrix(1.86405 0 0 1.85862 489.831 283)">7</text><text font-family="Arial,Arial_MSFontService,sans-serif" font-weight="400" font-size="8" transform="matrix(1.86405 0 0 1.85862 497.287 283)">.</text><text font-family="Arial,Arial_MSFontService,sans-serif" font-weight="400" font-size="8" transform="matrix(1.86405 0 0 1.85862 501.015 283)">5</text><text font-family="Arial,Arial_MSFontService,sans-serif" font-weight="400" font-size="8" transform="matrix(1.86405 0 0 1.85862 277.366 312)">-</text><text font-family="Arial,Arial_MSFontService,sans-serif" font-weight="400" font-size="8" transform="matrix(1.86405 0 0 1.85862 282.958 312)">log</text><text font-family="Arial,Arial_MSFontService,sans-serif" font-weight="400" font-size="8" transform="matrix(1.86405 0 0 1.85862 301.599 312)">10</text><text font-family="Arial,Arial_MSFontService,sans-serif" font-weight="400" font-size="8" transform="matrix(1.86405 0 0 1.85862 316.511 312)">(</text><text font-family="Arial,Arial_MSFontService,sans-serif" font-weight="400" font-size="8" transform="matrix(1.86405 0 0 1.85862 322.103 312)">P</text><text font-family="Arial,Arial_MSFontService,sans-serif" font-weight="400" font-size="8" transform="matrix(1.86405 0 0 1.85862 331.424 312)">.</text><text font-family="Arial,Arial_MSFontService,sans-serif" font-weight="400" font-size="8" transform="matrix(1.86405 0 0 1.85862 335.152 312)">adjust</text><text font-family="Arial,Arial_MSFontService,sans-serif" font-weight="400" font-size="8" transform="matrix(1.86405 0 0 1.85862 372.433 312)">)</text><text font-family="Arial,Arial_MSFontService,sans-serif" font-weight="400" font-size="9" transform="matrix(1.86405 0 0 1.85862 577.348 337)">KEGG</text></g><g><path d="M639.162 0 1278.32 0 1278.32 334.552 639.162 334.552Z" stroke="#FFFFFF" stroke-width="1.98873" stroke-linecap="round" stroke-linejoin="round" stroke-miterlimit="10" fill="#FFFFFF" transform="matrix(1.00292 0 0 1 -5 16.0055)"/></g><g><path d="M673.621 10.1853 1268.12 10.1853 1268.12 246.788 673.621 246.788Z" fill="#BAE1FF" transform="matrix(1.00292 0 0 1 -5 16.0055)"/><path d="M794.766 211.307 973.324 211.307 973.324 242.848 794.766 242.848Z" fill="#00A36C" transform="matrix(1.00292 0 0 1 -5 16.0055)"/><path d="M794.766 171.867 973.324 171.867 973.324 203.408 794.766 203.408Z" fill="#00A36C" transform="matrix(1.00292 0 0 1 -5 16.0055)"/><path d="M940.389 132.427 973.305 132.427 973.305 163.968 940.389 163.968Z" fill="#00A36C" transform="matrix(1.00292 0 0 1 -5 16.0055)"/><path d="M941.077 93.0055 973.305 93.0055 973.305 124.546 941.077 124.546Z" fill="#00A36C" transform="matrix(1.00292 0 0 1 -5 16.0055)"/><path d="M973.305 53.5655 1012.76 53.5655 1012.76 85.1064 973.305 85.1064Z" fill="#FF7F50" transform="matrix(1.00292 0 0 1 -5 16.0055)"/><path d="M973.305 14.1255 1021.93 14.1255 1021.93 45.6664 973.305 45.6664Z" fill="#FF7F50" transform="matrix(1.00292 0 0 1 -5 16.0055)"/><text font-family="Arial,Arial_MSFontService,sans-serif" font-weight="400" font-size="6" transform="matrix(1.86405 0 0 1.85862 781.014 90)">Biosynthesis of secondary metabolites</text><text font-family="Arial,Arial_MSFontService,sans-serif" font-weight="400" font-size="6" transform="matrix(1.86405 0 0 1.85862 840.663 50)">Plant</text><text font-family="Arial,Arial_MSFontService,sans-serif" font-weight="400" font-size="6" transform="matrix(1.86405 0 0 1.85862 864.896 50)">-</text><text font-family="Arial,Arial_MSFontService,sans-serif" font-weight="400" font-size="6" transform="matrix(1.86405 0 0 1.85862 868.624 50)">pathogen interaction</text><text font-family="Arial,Arial_MSFontService,sans-serif" font-weight="400" font-size="6" transform="matrix(1.86405 0 0 1.85862 971.147 247)">Photosynthesis</text><text font-family="Arial,Arial_MSFontService,sans-serif" font-weight="400" font-size="6" transform="matrix(1.86405 0 0 1.85862 971.147 208)">Ribosome biogenesis in eukaryotes</text><text font-family="Arial,Arial_MSFontService,sans-serif" font-weight="400" font-size="6" transform="matrix(1.86405 0 0 1.85862 971.147 168)">Lysine biosynthesis</text><text font-family="Arial,Arial_MSFontService,sans-serif" font-weight="400" font-size="6" transform="matrix(1.86405 0 0 1.85862 971.147 129)">Homologous recombination</text></g><g><path d="M700.645 252.066 700.645 246.788" stroke="#000000" stroke-width="1.98873" stroke-linejoin="round" stroke-miterlimit="10" fill="none" transform="matrix(1.00292 0 0 1 -5 16.0055)"/><path d="M944.106 252.066 944.106 246.788" stroke="#000000" stroke-width="1.98873" stroke-linejoin="round" stroke-miterlimit="10" fill="none" transform="matrix(1.00292 0 0 1 -5 16.0055)"/><path d="M1187.55 252.066 1187.55 246.788" stroke="#000000" stroke-width="1.98873" stroke-linejoin="round" stroke-miterlimit="10" fill="none" transform="matrix(1.00292 0 0 1 -5 16.0055)"/><text font-family="Arial,Arial_MSFontService,sans-serif" font-weight="400" font-size="8" transform="matrix(1.86405 0 0 1.85862 685.574 283)">11</text><text font-family="Arial,Arial_MSFontService,sans-serif" font-weight="400" font-size="8" transform="matrix(1.86405 0 0 1.85862 698.623 283)">.</text><text font-family="Arial,Arial_MSFontService,sans-serif" font-weight="400" font-size="8" transform="matrix(1.86405 0 0 1.85862 702.351 283)">2</text><text font-family="Arial,Arial_MSFontService,sans-serif" font-weight="400" font-size="8" transform="matrix(1.86405 0 0 1.85862 932.542 283)">1</text><text font-family="Arial,Arial_MSFontService,sans-serif" font-weight="400" font-size="8" transform="matrix(1.86405 0 0 1.85862 939.999 283)">.</text><text font-family="Arial,Arial_MSFontService,sans-serif" font-weight="400" font-size="8" transform="matrix(1.86405 0 0 1.85862 943.727 283)">2</text><text font-family="Arial,Arial_MSFontService,sans-serif" font-weight="400" font-size="8" transform="matrix(1.86405 0 0 1.85862 1176.7 283)">8</text><text font-family="Arial,Arial_MSFontService,sans-serif" font-weight="400" font-size="8" transform="matrix(1.86405 0 0 1.85862 1184.15 283)">.</text><text font-family="Arial,Arial_MSFontService,sans-serif" font-weight="400" font-size="8" transform="matrix(1.86405 0 0 1.85862 1187.88 283)">8</text><text font-family="Arial,Arial_MSFontService,sans-serif" font-weight="400" font-size="8" transform="matrix(1.86405 0 0 1.85862 918.376 312)">-</text><text font-family="Arial,Arial_MSFontService,sans-serif" font-weight="400" font-size="8" transform="matrix(1.86405 0 0 1.85862 923.968 312)">log</text><text font-family="Arial,Arial_MSFontService,sans-serif" font-weight="400" font-size="8" transform="matrix(1.86405 0 0 1.85862 942.608 312)">10</text><text font-family="Arial,Arial_MSFontService,sans-serif" font-weight="400" font-size="8" transform="matrix(1.86405 0 0 1.85862 957.521 312)">(</text><text font-family="Arial,Arial_MSFontService,sans-serif" font-weight="400" font-size="8" transform="matrix(1.86405 0 0 1.85862 963.113 312)">P</text><text font-family="Arial,Arial_MSFontService,sans-serif" font-weight="400" font-size="8" transform="matrix(1.86405 0 0 1.85862 972.433 312)">.</text><text font-family="Arial,Arial_MSFontService,sans-serif" font-weight="400" font-size="8" transform="matrix(1.86405 0 0 1.85862 976.161 312)">adjust</text><text font-family="Arial,Arial_MSFontService,sans-serif" font-weight="400" font-size="8" transform="matrix(1.86405 0 0 1.85862 1013.44 312)">)</text><text font-family="Arial,Arial_MSFontService,sans-serif" font-weight="400" font-size="9" transform="matrix(1.86405 0 0 1.85862 1218.38 337)">KEGG</text><path d="M1278.32 119.881 1472.03 119.881 1472.03 214.671 1278.32 214.671Z" fill="#FFFFFF" transform="matrix(1.00292 0 0 1 -5 16.0055)"/><path d="M1288.51 140.252 1320.63 140.252 1320.63 172.369 1288.51 172.369Z" fill="#FFFFFF" transform="matrix(1.00292 0 0 1 -5 16.0055)"/><path d="M1289.81 141.571 1319.29 141.571 1319.29 171.049 1289.81 171.049Z" fill="#FF7F50" transform="matrix(1.00292 0 0 1 -5 16.0055)"/><path d="M1288.51 172.369 1320.63 172.369 1320.63 204.486 1288.51 204.486Z" fill="#FFFFFF" transform="matrix(1.00292 0 0 1 -5 16.0055)"/><path d="M1289.81 173.688 1319.29 173.688 1319.29 203.166 1289.81 203.166Z" fill="#00A36C" transform="matrix(1.00292 0 0 1 -5 16.0055)"/><text font-family="Arial,Arial_MSFontService,sans-serif" font-weight="400" font-size="6" transform="matrix(1.86405 0 0 1.85862 1329.68 176)">Up</text><text font-family="Arial,Arial_MSFontService,sans-serif" font-weight="400" font-size="6" transform="matrix(1.86405 0 0 1.85862 1342.73 176)">-</text><text font-family="Arial,Arial_MSFontService,sans-serif" font-weight="400" font-size="6" transform="matrix(1.86405 0 0 1.85862 1346.45 176)">regulated pathways</text><text font-family="Arial,Arial_MSFontService,sans-serif" font-weight="400" font-size="6" transform="matrix(1.86405 0 0 1.85862 1329.68 208)">Down</text><text font-family="Arial,Arial_MSFontService,sans-serif" font-weight="400" font-size="6" transform="matrix(1.86405 0 0 1.85862 1355.77 208)">-</text><text font-family="Arial,Arial_MSFontService,sans-serif" font-weight="400" font-size="6" transform="matrix(1.86405 0 0 1.85862 1359.5 208)">regulated pathways</text></g></g></g></g><g clip-path="url(#clip4)"><g clip-path="url(#clip5)"><g clip-path="url(#clip6)"><g><path d="M69.9232 211.801 69.9232 206.2" stroke="#000000" stroke-width="2.11052" stroke-linejoin="round" stroke-miterlimit="10" fill="none" transform="matrix(1.00259 0 0 1 291.92 37.0377)"/><path d="M342.18 211.801 342.18 206.2" stroke="#000000" stroke-width="2.11052" stroke-linejoin="round" stroke-miterlimit="10" fill="none" transform="matrix(1.00259 0 0 1 291.92 37.0377)"/><path d="M614.417 211.801 614.417 206.2" stroke="#000000" stroke-width="2.11052" stroke-linejoin="round" stroke-miterlimit="10" fill="none" transform="matrix(1.00259 0 0 1 291.92 37.0377)"/><text font-family="Arial,Arial_MSFontService,sans-serif" font-weight="400" font-size="8" transform="matrix(1.97755 0 0 1.97245 348.181 264)">12</text><text font-family="Arial,Arial_MSFontService,sans-serif" font-weight="400" font-size="8" transform="matrix(1.97755 0 0 1.97245 364.001 264)">.</text><text font-family="Arial,Arial_MSFontService,sans-serif" font-weight="400" font-size="8" transform="matrix(1.97755 0 0 1.97245 367.956 264)">5</text><text font-family="Arial,Arial_MSFontService,sans-serif" font-weight="400" font-size="8" transform="matrix(1.97755 0 0 1.97245 625.097 264)">2</text><text font-family="Arial,Arial_MSFontService,sans-serif" font-weight="400" font-size="8" transform="matrix(1.97755 0 0 1.97245 633.007 264)">.</text><text font-family="Arial,Arial_MSFontService,sans-serif" font-weight="400" font-size="8" transform="matrix(1.97755 0 0 1.97245 636.962 264)">5</text><text font-family="Arial,Arial_MSFontService,sans-serif" font-weight="400" font-size="8" transform="matrix(1.97755 0 0 1.97245 898.038 264)">7</text><text font-family="Arial,Arial_MSFontService,sans-serif" font-weight="400" font-size="8" transform="matrix(1.97755 0 0 1.97245 905.948 264)">.</text><text font-family="Arial,Arial_MSFontService,sans-serif" font-weight="400" font-size="8" transform="matrix(1.97755 0 0 1.97245 909.904 264)">5</text><text font-family="Arial,Arial_MSFontService,sans-serif" font-weight="400" font-size="8" transform="matrix(1.97755 0 0 1.97245 642.994 295)">-</text><text font-family="Arial,Arial_MSFontService,sans-serif" font-weight="400" font-size="8" transform="matrix(1.97755 0 0 1.97245 648.926 295)">log</text><text font-family="Arial,Arial_MSFontService,sans-serif" font-weight="400" font-size="8" transform="matrix(1.97755 0 0 1.97245 668.702 295)">10</text><text font-family="Arial,Arial_MSFontService,sans-serif" font-weight="400" font-size="8" transform="matrix(1.97755 0 0 1.97245 684.522 295)">(</text><text font-family="Arial,Arial_MSFontService,sans-serif" font-weight="400" font-size="8" transform="matrix(1.97755 0 0 1.97245 690.455 295)">P</text><text font-family="Arial,Arial_MSFontService,sans-serif" font-weight="400" font-size="8" transform="matrix(1.97755 0 0 1.97245 700.343 295)">.</text><text font-family="Arial,Arial_MSFontService,sans-serif" font-weight="400" font-size="8" transform="matrix(1.97755 0 0 1.97245 704.298 295)">adjust</text><text font-family="Arial,Arial_MSFontService,sans-serif" font-weight="400" font-size="8" transform="matrix(1.97755 0 0 1.97245 743.849 295)">)</text><text font-family="Arial,Arial_MSFontService,sans-serif" font-weight="400" font-size="9" transform="matrix(1.97755 0 0 1.97245 1012.78 322)">KEGG</text></g><g><path d="M851.012 211.801 851.012 206.2" stroke="#000000" stroke-width="2.11052" stroke-linejoin="round" stroke-miterlimit="10" fill="none" transform="matrix(1.00259 0 0 1 291.92 37.0377)"/><path d="M1151.47 211.801 1151.47 206.2" stroke="#000000" stroke-width="2.11052" stroke-linejoin="round" stroke-miterlimit="10" fill="none" transform="matrix(1.00259 0 0 1 291.92 37.0377)"/><path d="M1451.92 211.801 1451.92 206.2" stroke="#000000" stroke-width="2.11052" stroke-linejoin="round" stroke-miterlimit="10" fill="none" transform="matrix(1.00259 0 0 1 291.92 37.0377)"/><text font-family="Arial,Arial_MSFontService,sans-serif" font-weight="400" font-size="8" transform="matrix(1.97755 0 0 1.97245 1132.28 264)">11</text><text font-family="Arial,Arial_MSFontService,sans-serif" font-weight="400" font-size="8" transform="matrix(1.97755 0 0 1.97245 1146.12 264)">.</text><text font-family="Arial,Arial_MSFontService,sans-serif" font-weight="400" font-size="8" transform="matrix(1.97755 0 0 1.97245 1150.08 264)">2</text><text font-family="Arial,Arial_MSFontService,sans-serif" font-weight="400" font-size="8" transform="matrix(1.97755 0 0 1.97245 1436.49 264)">1</text><text font-family="Arial,Arial_MSFontService,sans-serif" font-weight="400" font-size="8" transform="matrix(1.97755 0 0 1.97245 1444.4 264)">.</text><text font-family="Arial,Arial_MSFontService,sans-serif" font-weight="400" font-size="8" transform="matrix(1.97755 0 0 1.97245 1448.35 264)">2</text><text font-family="Arial,Arial_MSFontService,sans-serif" font-weight="400" font-size="8" transform="matrix(1.97755 0 0 1.97245 1737.71 264)">8</text><text font-family="Arial,Arial_MSFontService,sans-serif" font-weight="400" font-size="8" transform="matrix(1.97755 0 0 1.97245 1745.62 264)">.</text><text font-family="Arial,Arial_MSFontService,sans-serif" font-weight="400" font-size="8" transform="matrix(1.97755 0 0 1.97245 1749.57 264)">8</text><text font-family="Arial,Arial_MSFontService,sans-serif" font-weight="400" font-size="8" transform="matrix(1.97755 0 0 1.97245 1426.1 295)">-</text><text font-family="Arial,Arial_MSFontService,sans-serif" font-weight="400" font-size="8" transform="matrix(1.97755 0 0 1.97245 1432.04 295)">log</text><text font-family="Arial,Arial_MSFontService,sans-serif" font-weight="400" font-size="8" transform="matrix(1.97755 0 0 1.97245 1451.81 295)">10</text><text font-family="Arial,Arial_MSFontService,sans-serif" font-weight="400" font-size="8" transform="matrix(1.97755 0 0 1.97245 1467.63 295)">(</text><text font-family="Arial,Arial_MSFontService,sans-serif" font-weight="400" font-size="8" transform="matrix(1.97755 0 0 1.97245 1473.56 295)">P</text><text font-family="Arial,Arial_MSFontService,sans-serif" font-weight="400" font-size="8" transform="matrix(1.97755 0 0 1.97245 1483.45 295)">.</text><text font-family="Arial,Arial_MSFontService,sans-serif" font-weight="400" font-size="8" transform="matrix(1.97755 0 0 1.97245 1487.41 295)">adjust</text><text font-family="Arial,Arial_MSFontService,sans-serif" font-weight="400" font-size="8" transform="matrix(1.97755 0 0 1.97245 1526.96 295)">)</text><text font-family="Arial,Arial_MSFontService,sans-serif" font-weight="400" font-size="9" transform="matrix(1.97755 0 0 1.97245 1795.89 322)">KEGG</text><path d="M582.976 299.339 979.182 299.339 979.182 355.04 582.976 355.04Z" fill="#FFFFFF" transform="matrix(1.00259 0 0 1 291.92 37.0377)"/><path d="M604.594 310.148 638.678 310.148 638.678 344.231 604.594 344.231Z" fill="#FFFFFF" transform="matrix(1.00259 0 0 1 291.92 37.0377)"/><path d="M605.995 311.548 637.278 311.548 637.278 342.831 605.995 342.831Z" fill="#FF7F50" transform="matrix(1.00259 0 0 1 291.92 37.0377)"/><path d="M784.422 310.148 818.506 310.148 818.506 344.231 784.422 344.231Z" fill="#FFFFFF" transform="matrix(1.00259 0 0 1 291.92 37.0377)"/><path d="M785.823 311.548 817.106 311.548 817.106 342.831 785.823 342.831Z" fill="#00A36C" transform="matrix(1.00259 0 0 1 291.92 37.0377)"/><text font-family="Arial,Arial_MSFontService,sans-serif" font-weight="400" font-size="6" transform="matrix(1.97755 0 0 1.97245 943.087 368)">Up</text><text font-family="Arial,Arial_MSFontService,sans-serif" font-weight="400" font-size="6" transform="matrix(1.97755 0 0 1.97245 956.93 368)">-</text><text font-family="Arial,Arial_MSFontService,sans-serif" font-weight="400" font-size="6" transform="matrix(1.97755 0 0 1.97245 960.885 368)">regulated pathways</text><text font-family="Arial,Arial_MSFontService,sans-serif" font-weight="400" font-size="6" transform="matrix(1.97755 0 0 1.97245 1123.38 368)">Down</text><text font-family="Arial,Arial_MSFontService,sans-serif" font-weight="400" font-size="6" transform="matrix(1.97755 0 0 1.97245 1151.07 368)">-</text><text font-family="Arial,Arial_MSFontService,sans-serif" font-weight="400" font-size="6" transform="matrix(1.97755 0 0 1.97245 1155.02 368)">regulated pathways</text></g></g></g></g></g></svg>