<?xml version="1.0" encoding="utf-8"?>
<!DOCTYPE svg PUBLIC "-//W3C//DTD SVG 1.1//EN" "http://www.w3.org/Graphics/SVG/1.1/DTD/svg11.dtd">
<svg version="1.1" xmlns="http://www.w3.org/2000/svg" xmlns:xlink="http://www.w3.org/1999/xlink" width="993.7499933242798" height="369.8833351135254"><defs><linearGradient id="slMzdIVedBSB" x1="0px" x2="200px" y1="0px" y2="12px" gradientUnits="userSpaceOnUse"><stop offset="0" stop-color="#729fcf"/><stop offset="0.5" stop-color="#ffffff"/><stop offset="1" stop-color="#a40000"/></linearGradient><clipPath id="RcQLsMpDJgEG"><path fill="none" stroke="white" paint-order="fill stroke markers" d=" M 0 0 L 90.44999694824219 0 L 90.44999694824219 168 L 0 168 L 0 0 Z" stroke-miterlimit="10" stroke-dasharray=""/></clipPath><clipPath id="GUVbCShwGpPo"><path fill="none" stroke="white" paint-order="fill stroke markers" d=" M 0 0 L 84.66666412353516 0 L 84.66666412353516 168 L 0 168 L 0 0 Z" stroke-miterlimit="10" stroke-dasharray=""/></clipPath><clipPath id="MMUSmfTwhCJS"><path fill="none" stroke="white" paint-order="fill stroke markers" d=" M 0 0 L 302.3666687011719 0 L 302.3666687011719 168 L 0 168 L 0 0 Z" stroke-miterlimit="10" stroke-dasharray=""/></clipPath><clipPath id="UJbdqlUAuiTc"><path fill="none" stroke="white" paint-order="fill stroke markers" d=" M 0 0 L 237.6999969482422 0 L 237.6999969482422 168 L 0 168 L 0 0 Z" stroke-miterlimit="10" stroke-dasharray=""/></clipPath></defs><g><g transform="translate(15,0) translate(25,0)"><rect fill="url(#slMzdIVedBSB)" stroke="none" x="0" y="0" width="200" height="12"/><rect fill="url(#slMzdIVedBSB)" stroke="LightGrey" x="0" y="0" width="200" height="12" stroke-miterlimit="10" stroke-dasharray=""/><text fill="black" stroke="none" font-family="Helvetica" font-size="11px" font-style="normal" font-weight="normal" text-decoration="normal" x="0" y="14" text-anchor="middle" dominant-baseline="text-before-edge">row min</text><text fill="black" stroke="none" font-family="Helvetica" font-size="11px" font-style="normal" font-weight="normal" text-decoration="normal" x="200" y="14" text-anchor="middle" dominant-baseline="text-before-edge">row max</text><g transform="translate(250,0)"/></g><g transform="translate(15,40)"/><g transform="translate(15,40)"/><g transform="translate(15,40)"/><g transform="translate(15,40)"/><g transform="translate(15,40)"/><g transform="translate(15,40)"/><g transform="translate(106,40) translate(0,0)"><path fill="none" stroke="rgb(0,0,0)" paint-order="fill stroke markers" d=" M 105 58.507271788343516 L 105 0 L 28 0 L 28 87.66697238370163" stroke-miterlimit="10" stroke-width="0.7" stroke-dasharray=""/><path fill="none" stroke="rgb(0,0,0)" paint-order="fill stroke markers" d=" M 49 100 L 49 87.66697238370163 L 21 87.66697238370163 L 21 95.956617322652" stroke-miterlimit="10" stroke-width="0.7" stroke-dasharray=""/><path fill="none" stroke="rgb(0,0,0)" paint-order="fill stroke markers" d=" M 28 97.68210092272923 L 28 95.956617322652 L 7 95.956617322652 L 7 100" stroke-miterlimit="10" stroke-width="0.7" stroke-dasharray=""/><path fill="none" stroke="rgb(0,0,0)" paint-order="fill stroke markers" d=" M 35 100 L 35 97.68210092272923 L 21 97.68210092272923 L 21 100" stroke-miterlimit="10" stroke-width="0.7" stroke-dasharray=""/><path fill="none" stroke="rgb(0,0,0)" paint-order="fill stroke markers" d=" M 133 87.00163191742732 L 133 58.507271788343516 L 84 58.507271788343516 L 84 82.39838055829283" stroke-miterlimit="10" stroke-width="0.7" stroke-dasharray=""/><path fill="none" stroke="rgb(0,0,0)" paint-order="fill stroke markers" d=" M 105 100 L 105 82.39838055829283 L 77 82.39838055829283 L 77 93.64015252851796" stroke-miterlimit="10" stroke-width="0.7" stroke-dasharray=""/><path fill="none" stroke="rgb(0,0,0)" paint-order="fill stroke markers" d=" M 84 99.00046804443838 L 84 93.64015252851796 L 63 93.64015252851796 L 63 100" stroke-miterlimit="10" stroke-width="0.7" stroke-dasharray=""/><path fill="none" stroke="rgb(0,0,0)" paint-order="fill stroke markers" d=" M 91 100 L 91 99.00046804443838 L 77 99.00046804443838 L 77 100" stroke-miterlimit="10" stroke-width="0.7" stroke-dasharray=""/><path fill="none" stroke="rgb(0,0,0)" paint-order="fill stroke markers" d=" M 140 89.5127320689374 L 140 87.00163191742732 L 119 87.00163191742732 L 119 100" stroke-miterlimit="10" stroke-width="0.7" stroke-dasharray=""/><path fill="none" stroke="rgb(0,0,0)" paint-order="fill stroke markers" d=" M 147 100 L 147 89.5127320689374 L 133 89.5127320689374 L 133 100" stroke-miterlimit="10" stroke-width="0.7" stroke-dasharray=""/></g><g transform="translate(0,201.8833351135254) translate(0,0)"><path fill="none" stroke="rgb(0,0,0)" paint-order="fill stroke markers" d=" M 88.1410702347674 119 L 0 119 L 0 35 L 91.43066760056018 35" stroke-miterlimit="10" stroke-width="0.7" stroke-dasharray=""/><path fill="none" stroke="rgb(0,0,0)" paint-order="fill stroke markers" d=" M 95.091293068541 42 L 91.43066760056018 42 L 91.43066760056018 7 L 100 7" stroke-miterlimit="10" stroke-width="0.7" stroke-dasharray=""/><path fill="none" stroke="rgb(0,0,0)" paint-order="fill stroke markers" d=" M 96.19484416455643 49 L 95.091293068541 49 L 95.091293068541 21 L 100 21" stroke-miterlimit="10" stroke-width="0.7" stroke-dasharray=""/><path fill="none" stroke="rgb(0,0,0)" paint-order="fill stroke markers" d=" M 97.49362636321214 56 L 96.19484416455643 56 L 96.19484416455643 35 L 100 35" stroke-miterlimit="10" stroke-width="0.7" stroke-dasharray=""/><path fill="none" stroke="rgb(0,0,0)" paint-order="fill stroke markers" d=" M 100 63 L 97.49362636321214 63 L 97.49362636321214 49 L 100 49" stroke-miterlimit="10" stroke-width="0.7" stroke-dasharray=""/><path fill="none" stroke="rgb(0,0,0)" paint-order="fill stroke markers" d=" M 90.77818837431163 154 L 88.1410702347674 154 L 88.1410702347674 105 L 92.29804670607724 105" stroke-miterlimit="10" stroke-width="0.7" stroke-dasharray=""/><path fill="none" stroke="rgb(0,0,0)" paint-order="fill stroke markers" d=" M 94.48048326289056 119 L 92.29804670607724 119 L 92.29804670607724 84 L 96.49621481231068 84" stroke-miterlimit="10" stroke-width="0.7" stroke-dasharray=""/><path fill="none" stroke="rgb(0,0,0)" paint-order="fill stroke markers" d=" M 100 91 L 96.49621481231068 91 L 96.49621481231068 77 L 100 77" stroke-miterlimit="10" stroke-width="0.7" stroke-dasharray=""/><path fill="none" stroke="rgb(0,0,0)" paint-order="fill stroke markers" d=" M 100 133 L 94.48048326289056 133 L 94.48048326289056 112 L 96.32664027800263 112" stroke-miterlimit="10" stroke-width="0.7" stroke-dasharray=""/><path fill="none" stroke="rgb(0,0,0)" paint-order="fill stroke markers" d=" M 100 119 L 96.32664027800263 119 L 96.32664027800263 105 L 100 105" stroke-miterlimit="10" stroke-width="0.7" stroke-dasharray=""/><path fill="none" stroke="rgb(0,0,0)" paint-order="fill stroke markers" d=" M 100 161 L 90.77818837431163 161 L 90.77818837431163 147 L 100 147" stroke-miterlimit="10" stroke-width="0.7" stroke-dasharray=""/></g><g transform="translate(106,146)" fill="rgb(0, 0, 0)"><path fill="" stroke="#808080" paint-order="fill stroke markers" d=" M 14 0 L 14 49.88333511352539 M 28 0 L 28 49.88333511352539 M 42 0 L 42 49.88333511352539 M 56 0 L 56 49.88333511352539 M 70 0 L 70 49.88333511352539 M 84 0 L 84 49.88333511352539 M 98 0 L 98 49.88333511352539 M 112 0 L 112 49.88333511352539 M 126 0 L 126 49.88333511352539 M 140 0 L 140 49.88333511352539 M 154 0 L 154 49.88333511352539" stroke-miterlimit="10" stroke-width="0.1" stroke-dasharray=""/><g transform="translate(2,0) translate(0,0)"><g transform="translate(7,48.88333511352539) rotate(-90,0,0)"><text fill="" stroke="none" font-family="Helvetica" font-size="12px" font-style="normal" font-weight="normal" text-decoration="normal" x="0" y="0" text-anchor="start" dominant-baseline="central">Crep2</text></g><g transform="translate(21,48.88333511352539) rotate(-90,0,0)"><text fill="rgb(0, 0, 0)" stroke="none" font-family="Helvetica" font-size="12px" font-style="normal" font-weight="normal" text-decoration="normal" x="0" y="0" text-anchor="start" dominant-baseline="central">Crep1</text></g><g transform="translate(35,48.88333511352539) rotate(-90,0,0)"><text fill="rgb(0, 0, 0)" stroke="none" font-family="Helvetica" font-size="12px" font-style="normal" font-weight="normal" text-decoration="normal" x="0" y="0" text-anchor="start" dominant-baseline="central">Crep3</text></g><g transform="translate(49,48.88333511352539) rotate(-90,0,0)"><text fill="rgb(0, 0, 0)" stroke="none" font-family="Helvetica" font-size="12px" font-style="normal" font-weight="normal" text-decoration="normal" x="0" y="0" text-anchor="start" dominant-baseline="central">PErep1</text></g><g transform="translate(63,48.88333511352539) rotate(-90,0,0)"><text fill="rgb(0, 0, 0)" stroke="none" font-family="Helvetica" font-size="12px" font-style="normal" font-weight="normal" text-decoration="normal" x="0" y="0" text-anchor="start" dominant-baseline="central">Trep2</text></g><g transform="translate(77,48.88333511352539) rotate(-90,0,0)"><text fill="rgb(0, 0, 0)" stroke="none" font-family="Helvetica" font-size="12px" font-style="normal" font-weight="normal" text-decoration="normal" x="0" y="0" text-anchor="start" dominant-baseline="central">Trep1</text></g><g transform="translate(91,48.88333511352539) rotate(-90,0,0)"><text fill="rgb(0, 0, 0)" stroke="none" font-family="Helvetica" font-size="12px" font-style="normal" font-weight="normal" text-decoration="normal" x="0" y="0" text-anchor="start" dominant-baseline="central">Trep3</text></g><g transform="translate(105,48.88333511352539) rotate(-90,0,0)"><text fill="rgb(0, 0, 0)" stroke="none" font-family="Helvetica" font-size="12px" font-style="normal" font-weight="normal" text-decoration="normal" x="0" y="0" text-anchor="start" dominant-baseline="central">PErep2</text></g><g transform="translate(119,48.88333511352539) rotate(-90,0,0)"><text fill="rgb(0, 0, 0)" stroke="none" font-family="Helvetica" font-size="12px" font-style="normal" font-weight="normal" text-decoration="normal" x="0" y="0" text-anchor="start" dominant-baseline="central">VMrep1</text></g><g transform="translate(133,48.88333511352539) rotate(-90,0,0)"><text fill="rgb(0, 0, 0)" stroke="none" font-family="Helvetica" font-size="12px" font-style="normal" font-weight="normal" text-decoration="normal" x="0" y="0" text-anchor="start" dominant-baseline="central">VMrep2</text></g><g transform="translate(147,48.88333511352539) rotate(-90,0,0)"><text fill="rgb(0, 0, 0)" stroke="none" font-family="Helvetica" font-size="12px" font-style="normal" font-weight="normal" text-decoration="normal" x="0" y="0" text-anchor="start" dominant-baseline="central">VMrep3</text></g></g></g><g transform="translate(104,195.8833351135254)"><text fill="rgb(0, 0, 0)" stroke="none" font-family="Helvetica" font-size="11px" font-style="normal" font-weight="400" text-decoration="normal" x="0" y="0" text-anchor="end" dominant-baseline="text-after-edge">id</text></g><g transform="translate(106,201.8833351135254) translate(0,0)"><rect fill="#b53030" stroke="none" x="0" y="0" width="14" height="14"/><rect fill="#a40000" stroke="none" x="14" y="0" width="14" height="14"/><rect fill="#c35757" stroke="none" x="28" y="0" width="14" height="14"/><rect fill="#b63333" stroke="none" x="42" y="0" width="14" height="14"/><rect fill="#edcdcd" stroke="none" x="56" y="0" width="14" height="14"/><rect fill="#e6b8b8" stroke="none" x="70" y="0" width="14" height="14"/><rect fill="#e9c0c0" stroke="none" x="84" y="0" width="14" height="14"/><rect fill="#e6b8b8" stroke="none" x="98" y="0" width="14" height="14"/><rect fill="#729fcf" stroke="none" x="112" y="0" width="14" height="14"/><rect fill="#86add6" stroke="none" x="126" y="0" width="14" height="14"/><rect fill="#f6f9fc" stroke="none" x="140" y="0" width="14" height="14"/><rect fill="#a40000" stroke="none" x="0" y="14" width="14" height="14"/><rect fill="#c76262" stroke="none" x="14" y="14" width="14" height="14"/><rect fill="#cb6c6c" stroke="none" x="28" y="14" width="14" height="14"/><rect fill="#dc9c9c" stroke="none" x="42" y="14" width="14" height="14"/><rect fill="#e4edf6" stroke="none" x="56" y="14" width="14" height="14"/><rect fill="#f1d8d8" stroke="none" x="70" y="14" width="14" height="14"/><rect fill="#e8bebe" stroke="none" x="84" y="14" width="14" height="14"/><rect fill="#d07b7b" stroke="none" x="98" y="14" width="14" height="14"/><rect fill="#c6d8ec" stroke="none" x="112" y="14" width="14" height="14"/><rect fill="#83aad5" stroke="none" x="126" y="14" width="14" height="14"/><rect fill="#729fcf" stroke="none" x="140" y="14" width="14" height="14"/><rect fill="#b63131" stroke="none" x="0" y="28" width="14" height="14"/><rect fill="#a40000" stroke="none" x="14" y="28" width="14" height="14"/><rect fill="#ac1616" stroke="none" x="28" y="28" width="14" height="14"/><rect fill="#b12626" stroke="none" x="42" y="28" width="14" height="14"/><rect fill="#dc9c9c" stroke="none" x="56" y="28" width="14" height="14"/><rect fill="#eed0d0" stroke="none" x="70" y="28" width="14" height="14"/><rect fill="#f5e4e4" stroke="none" x="84" y="28" width="14" height="14"/><rect fill="#d58989" stroke="none" x="98" y="28" width="14" height="14"/><rect fill="#c3d6ea" stroke="none" x="112" y="28" width="14" height="14"/><rect fill="#bcd1e8" stroke="none" x="126" y="28" width="14" height="14"/><rect fill="#729fcf" stroke="none" x="140" y="28" width="14" height="14"/><rect fill="#a90f0f" stroke="none" x="0" y="42" width="14" height="14"/><rect fill="#a80b0b" stroke="none" x="14" y="42" width="14" height="14"/><rect fill="#a40000" stroke="none" x="28" y="42" width="14" height="14"/><rect fill="#c76161" stroke="none" x="42" y="42" width="14" height="14"/><rect fill="#e8eff7" stroke="none" x="56" y="42" width="14" height="14"/><rect fill="#f2dbdb" stroke="none" x="70" y="42" width="14" height="14"/><rect fill="#f1d9d9" stroke="none" x="84" y="42" width="14" height="14"/><rect fill="#b93b3b" stroke="none" x="98" y="42" width="14" height="14"/><rect fill="#729fcf" stroke="none" x="112" y="42" width="14" height="14"/><rect fill="#aec8e3" stroke="none" x="126" y="42" width="14" height="14"/><rect fill="#83aad5" stroke="none" x="140" y="42" width="14" height="14"/><rect fill="#a80b0b" stroke="none" x="0" y="56" width="14" height="14"/><rect fill="#a40000" stroke="none" x="14" y="56" width="14" height="14"/><rect fill="#aa1111" stroke="none" x="28" y="56" width="14" height="14"/><rect fill="#aa1111" stroke="none" x="42" y="56" width="14" height="14"/><rect fill="#f1f6fa" stroke="none" x="56" y="56" width="14" height="14"/><rect fill="#d38585" stroke="none" x="70" y="56" width="14" height="14"/><rect fill="#db9b9b" stroke="none" x="84" y="56" width="14" height="14"/><rect fill="#e1aaaa" stroke="none" x="98" y="56" width="14" height="14"/><rect fill="#75a1d0" stroke="none" x="112" y="56" width="14" height="14"/><rect fill="#d5e2f1" stroke="none" x="126" y="56" width="14" height="14"/><rect fill="#729fcf" stroke="none" x="140" y="56" width="14" height="14"/><rect fill="#729fcf" stroke="none" x="0" y="70" width="14" height="14"/><rect fill="#9ebdde" stroke="none" x="14" y="70" width="14" height="14"/><rect fill="#81a9d4" stroke="none" x="28" y="70" width="14" height="14"/><rect fill="#73a0cf" stroke="none" x="42" y="70" width="14" height="14"/><rect fill="#e4edf6" stroke="none" x="56" y="70" width="14" height="14"/><rect fill="#faf0f0" stroke="none" x="70" y="70" width="14" height="14"/><rect fill="#eef3f9" stroke="none" x="84" y="70" width="14" height="14"/><rect fill="#faf1f1" stroke="none" x="98" y="70" width="14" height="14"/><rect fill="#a40000" stroke="none" x="112" y="70" width="14" height="14"/><rect fill="#eac4c4" stroke="none" x="126" y="70" width="14" height="14"/><rect fill="#c76363" stroke="none" x="140" y="70" width="14" height="14"/><rect fill="#cdddee" stroke="none" x="0" y="84" width="14" height="14"/><rect fill="#b1cae5" stroke="none" x="14" y="84" width="14" height="14"/><rect fill="#a5c2e0" stroke="none" x="28" y="84" width="14" height="14"/><rect fill="#729fcf" stroke="none" x="42" y="84" width="14" height="14"/><rect fill="#f6e6e6" stroke="none" x="56" y="84" width="14" height="14"/><rect fill="#e6b8b8" stroke="none" x="70" y="84" width="14" height="14"/><rect fill="#e9c2c2" stroke="none" x="84" y="84" width="14" height="14"/><rect fill="#d17f7f" stroke="none" x="98" y="84" width="14" height="14"/><rect fill="#b02323" stroke="none" x="112" y="84" width="14" height="14"/><rect fill="#b02121" stroke="none" x="126" y="84" width="14" height="14"/><rect fill="#a40000" stroke="none" x="140" y="84" width="14" height="14"/><rect fill="#95b7db" stroke="none" x="0" y="98" width="14" height="14"/><rect fill="#729fcf" stroke="none" x="14" y="98" width="14" height="14"/><rect fill="#79a4d1" stroke="none" x="28" y="98" width="14" height="14"/><rect fill="#bdd2e8" stroke="none" x="42" y="98" width="14" height="14"/><rect fill="#fbf4f4" stroke="none" x="56" y="98" width="14" height="14"/><rect fill="#f4e1e1" stroke="none" x="70" y="98" width="14" height="14"/><rect fill="#f4e1e1" stroke="none" x="84" y="98" width="14" height="14"/><rect fill="#fcf5f5" stroke="none" x="98" y="98" width="14" height="14"/><rect fill="#a40000" stroke="none" x="112" y="98" width="14" height="14"/><rect fill="#e1acac" stroke="none" x="126" y="98" width="14" height="14"/><rect fill="#f0d5d5" stroke="none" x="140" y="98" width="14" height="14"/><rect fill="#aac5e2" stroke="none" x="0" y="112" width="14" height="14"/><rect fill="#729fcf" stroke="none" x="14" y="112" width="14" height="14"/><rect fill="#94b6db" stroke="none" x="28" y="112" width="14" height="14"/><rect fill="#cedeee" stroke="none" x="42" y="112" width="14" height="14"/><rect fill="#f7e9e9" stroke="none" x="56" y="112" width="14" height="14"/><rect fill="#f9f0f0" stroke="none" x="70" y="112" width="14" height="14"/><rect fill="#ffffff" stroke="none" x="84" y="112" width="14" height="14"/><rect fill="#e8eff7" stroke="none" x="98" y="112" width="14" height="14"/><rect fill="#a40000" stroke="none" x="112" y="112" width="14" height="14"/><rect fill="#fefdfd" stroke="none" x="126" y="112" width="14" height="14"/><rect fill="#c15252" stroke="none" x="140" y="112" width="14" height="14"/><rect fill="#7da6d3" stroke="none" x="0" y="126" width="14" height="14"/><rect fill="#8db1d8" stroke="none" x="14" y="126" width="14" height="14"/><rect fill="#729fcf" stroke="none" x="28" y="126" width="14" height="14"/><rect fill="#b2cbe5" stroke="none" x="42" y="126" width="14" height="14"/><rect fill="#ceddee" stroke="none" x="56" y="126" width="14" height="14"/><rect fill="#dfe9f4" stroke="none" x="70" y="126" width="14" height="14"/><rect fill="#d8e5f2" stroke="none" x="84" y="126" width="14" height="14"/><rect fill="#bed3e9" stroke="none" x="98" y="126" width="14" height="14"/><rect fill="#a40000" stroke="none" x="112" y="126" width="14" height="14"/><rect fill="#d48686" stroke="none" x="126" y="126" width="14" height="14"/><rect fill="#fefcfc" stroke="none" x="140" y="126" width="14" height="14"/><rect fill="#83aad5" stroke="none" x="0" y="140" width="14" height="14"/><rect fill="#729fcf" stroke="none" x="14" y="140" width="14" height="14"/><rect fill="#83aad5" stroke="none" x="28" y="140" width="14" height="14"/><rect fill="#7ea7d3" stroke="none" x="42" y="140" width="14" height="14"/><rect fill="#d1dfef" stroke="none" x="56" y="140" width="14" height="14"/><rect fill="#dce7f3" stroke="none" x="70" y="140" width="14" height="14"/><rect fill="#d8e4f2" stroke="none" x="84" y="140" width="14" height="14"/><rect fill="#d6e3f1" stroke="none" x="98" y="140" width="14" height="14"/><rect fill="#f9efef" stroke="none" x="112" y="140" width="14" height="14"/><rect fill="#dfe9f4" stroke="none" x="126" y="140" width="14" height="14"/><rect fill="#a40000" stroke="none" x="140" y="140" width="14" height="14"/><rect fill="#76a2d0" stroke="none" x="0" y="154" width="14" height="14"/><rect fill="#88aed6" stroke="none" x="14" y="154" width="14" height="14"/><rect fill="#729fcf" stroke="none" x="28" y="154" width="14" height="14"/><rect fill="#9dbcde" stroke="none" x="42" y="154" width="14" height="14"/><rect fill="#e2ebf5" stroke="none" x="56" y="154" width="14" height="14"/><rect fill="#e8eff7" stroke="none" x="70" y="154" width="14" height="14"/><rect fill="#bdd2e9" stroke="none" x="84" y="154" width="14" height="14"/><rect fill="#b7cee7" stroke="none" x="98" y="154" width="14" height="14"/><rect fill="#eecece" stroke="none" x="112" y="154" width="14" height="14"/><rect fill="#a40000" stroke="none" x="126" y="154" width="14" height="14"/><rect fill="#a60606" stroke="none" x="140" y="154" width="14" height="14"/><path fill="none" stroke="#808080" paint-order="fill stroke markers" d=" M 0 0 L 14 0 L 14 14 L 0 14 L 0 0 Z M 14 0 L 28 0 L 28 14 L 14 14 L 14 0 Z M 28 0 L 42 0 L 42 14 L 28 14 L 28 0 Z M 42 0 L 56 0 L 56 14 L 42 14 L 42 0 Z M 56 0 L 70 0 L 70 14 L 56 14 L 56 0 Z M 70 0 L 84 0 L 84 14 L 70 14 L 70 0 Z M 84 0 L 98 0 L 98 14 L 84 14 L 84 0 Z M 98 0 L 112 0 L 112 14 L 98 14 L 98 0 Z M 112 0 L 126 0 L 126 14 L 112 14 L 112 0 Z M 126 0 L 140 0 L 140 14 L 126 14 L 126 0 Z M 140 0 L 154 0 L 154 14 L 140 14 L 140 0 Z M 0 14 L 14 14 L 14 28 L 0 28 L 0 14 Z M 14 14 L 28 14 L 28 28 L 14 28 L 14 14 Z M 28 14 L 42 14 L 42 28 L 28 28 L 28 14 Z M 42 14 L 56 14 L 56 28 L 42 28 L 42 14 Z M 56 14 L 70 14 L 70 28 L 56 28 L 56 14 Z M 70 14 L 84 14 L 84 28 L 70 28 L 70 14 Z M 84 14 L 98 14 L 98 28 L 84 28 L 84 14 Z M 98 14 L 112 14 L 112 28 L 98 28 L 98 14 Z M 112 14 L 126 14 L 126 28 L 112 28 L 112 14 Z M 126 14 L 140 14 L 140 28 L 126 28 L 126 14 Z M 140 14 L 154 14 L 154 28 L 140 28 L 140 14 Z M 0 28 L 14 28 L 14 42 L 0 42 L 0 28 Z M 14 28 L 28 28 L 28 42 L 14 42 L 14 28 Z M 28 28 L 42 28 L 42 42 L 28 42 L 28 28 Z M 42 28 L 56 28 L 56 42 L 42 42 L 42 28 Z M 56 28 L 70 28 L 70 42 L 56 42 L 56 28 Z M 70 28 L 84 28 L 84 42 L 70 42 L 70 28 Z M 84 28 L 98 28 L 98 42 L 84 42 L 84 28 Z M 98 28 L 112 28 L 112 42 L 98 42 L 98 28 Z M 112 28 L 126 28 L 126 42 L 112 42 L 112 28 Z M 126 28 L 140 28 L 140 42 L 126 42 L 126 28 Z M 140 28 L 154 28 L 154 42 L 140 42 L 140 28 Z M 0 42 L 14 42 L 14 56 L 0 56 L 0 42 Z M 14 42 L 28 42 L 28 56 L 14 56 L 14 42 Z M 28 42 L 42 42 L 42 56 L 28 56 L 28 42 Z M 42 42 L 56 42 L 56 56 L 42 56 L 42 42 Z M 56 42 L 70 42 L 70 56 L 56 56 L 56 42 Z M 70 42 L 84 42 L 84 56 L 70 56 L 70 42 Z M 84 42 L 98 42 L 98 56 L 84 56 L 84 42 Z M 98 42 L 112 42 L 112 56 L 98 56 L 98 42 Z M 112 42 L 126 42 L 126 56 L 112 56 L 112 42 Z M 126 42 L 140 42 L 140 56 L 126 56 L 126 42 Z M 140 42 L 154 42 L 154 56 L 140 56 L 140 42 Z M 0 56 L 14 56 L 14 70 L 0 70 L 0 56 Z M 14 56 L 28 56 L 28 70 L 14 70 L 14 56 Z M 28 56 L 42 56 L 42 70 L 28 70 L 28 56 Z M 42 56 L 56 56 L 56 70 L 42 70 L 42 56 Z M 56 56 L 70 56 L 70 70 L 56 70 L 56 56 Z M 70 56 L 84 56 L 84 70 L 70 70 L 70 56 Z M 84 56 L 98 56 L 98 70 L 84 70 L 84 56 Z M 98 56 L 112 56 L 112 70 L 98 70 L 98 56 Z M 112 56 L 126 56 L 126 70 L 112 70 L 112 56 Z M 126 56 L 140 56 L 140 70 L 126 70 L 126 56 Z M 140 56 L 154 56 L 154 70 L 140 70 L 140 56 Z M 0 70 L 14 70 L 14 84 L 0 84 L 0 70 Z M 14 70 L 28 70 L 28 84 L 14 84 L 14 70 Z M 28 70 L 42 70 L 42 84 L 28 84 L 28 70 Z M 42 70 L 56 70 L 56 84 L 42 84 L 42 70 Z M 56 70 L 70 70 L 70 84 L 56 84 L 56 70 Z M 70 70 L 84 70 L 84 84 L 70 84 L 70 70 Z M 84 70 L 98 70 L 98 84 L 84 84 L 84 70 Z M 98 70 L 112 70 L 112 84 L 98 84 L 98 70 Z M 112 70 L 126 70 L 126 84 L 112 84 L 112 70 Z M 126 70 L 140 70 L 140 84 L 126 84 L 126 70 Z M 140 70 L 154 70 L 154 84 L 140 84 L 140 70 Z M 0 84 L 14 84 L 14 98 L 0 98 L 0 84 Z M 14 84 L 28 84 L 28 98 L 14 98 L 14 84 Z M 28 84 L 42 84 L 42 98 L 28 98 L 28 84 Z M 42 84 L 56 84 L 56 98 L 42 98 L 42 84 Z M 56 84 L 70 84 L 70 98 L 56 98 L 56 84 Z M 70 84 L 84 84 L 84 98 L 70 98 L 70 84 Z M 84 84 L 98 84 L 98 98 L 84 98 L 84 84 Z M 98 84 L 112 84 L 112 98 L 98 98 L 98 84 Z M 112 84 L 126 84 L 126 98 L 112 98 L 112 84 Z M 126 84 L 140 84 L 140 98 L 126 98 L 126 84 Z M 140 84 L 154 84 L 154 98 L 140 98 L 140 84 Z M 0 98 L 14 98 L 14 112 L 0 112 L 0 98 Z M 14 98 L 28 98 L 28 112 L 14 112 L 14 98 Z M 28 98 L 42 98 L 42 112 L 28 112 L 28 98 Z M 42 98 L 56 98 L 56 112 L 42 112 L 42 98 Z M 56 98 L 70 98 L 70 112 L 56 112 L 56 98 Z M 70 98 L 84 98 L 84 112 L 70 112 L 70 98 Z M 84 98 L 98 98 L 98 112 L 84 112 L 84 98 Z M 98 98 L 112 98 L 112 112 L 98 112 L 98 98 Z M 112 98 L 126 98 L 126 112 L 112 112 L 112 98 Z M 126 98 L 140 98 L 140 112 L 126 112 L 126 98 Z M 140 98 L 154 98 L 154 112 L 140 112 L 140 98 Z M 0 112 L 14 112 L 14 126 L 0 126 L 0 112 Z M 14 112 L 28 112 L 28 126 L 14 126 L 14 112 Z M 28 112 L 42 112 L 42 126 L 28 126 L 28 112 Z M 42 112 L 56 112 L 56 126 L 42 126 L 42 112 Z M 56 112 L 70 112 L 70 126 L 56 126 L 56 112 Z M 70 112 L 84 112 L 84 126 L 70 126 L 70 112 Z M 84 112 L 98 112 L 98 126 L 84 126 L 84 112 Z M 98 112 L 112 112 L 112 126 L 98 126 L 98 112 Z M 112 112 L 126 112 L 126 126 L 112 126 L 112 112 Z M 126 112 L 140 112 L 140 126 L 126 126 L 126 112 Z M 140 112 L 154 112 L 154 126 L 140 126 L 140 112 Z M 0 126 L 14 126 L 14 140 L 0 140 L 0 126 Z M 14 126 L 28 126 L 28 140 L 14 140 L 14 126 Z M 28 126 L 42 126 L 42 140 L 28 140 L 28 126 Z M 42 126 L 56 126 L 56 140 L 42 140 L 42 126 Z M 56 126 L 70 126 L 70 140 L 56 140 L 56 126 Z M 70 126 L 84 126 L 84 140 L 70 140 L 70 126 Z M 84 126 L 98 126 L 98 140 L 84 140 L 84 126 Z M 98 126 L 112 126 L 112 140 L 98 140 L 98 126 Z M 112 126 L 126 126 L 126 140 L 112 140 L 112 126 Z M 126 126 L 140 126 L 140 140 L 126 140 L 126 126 Z M 140 126 L 154 126 L 154 140 L 140 140 L 140 126 Z M 0 140 L 14 140 L 14 154 L 0 154 L 0 140 Z M 14 140 L 28 140 L 28 154 L 14 154 L 14 140 Z M 28 140 L 42 140 L 42 154 L 28 154 L 28 140 Z M 42 140 L 56 140 L 56 154 L 42 154 L 42 140 Z M 56 140 L 70 140 L 70 154 L 56 154 L 56 140 Z M 70 140 L 84 140 L 84 154 L 70 154 L 70 140 Z M 84 140 L 98 140 L 98 154 L 84 154 L 84 140 Z M 98 140 L 112 140 L 112 154 L 98 154 L 98 140 Z M 112 140 L 126 140 L 126 154 L 112 154 L 112 140 Z M 126 140 L 140 140 L 140 154 L 126 154 L 126 140 Z M 140 140 L 154 140 L 154 154 L 140 154 L 140 140 Z M 0 154 L 14 154 L 14 168 L 0 168 L 0 154 Z M 14 154 L 28 154 L 28 168 L 14 168 L 14 154 Z M 28 154 L 42 154 L 42 168 L 28 168 L 28 154 Z M 42 154 L 56 154 L 56 168 L 42 168 L 42 154 Z M 56 154 L 70 154 L 70 168 L 56 168 L 56 154 Z M 70 154 L 84 154 L 84 168 L 70 168 L 70 154 Z M 84 154 L 98 154 L 98 168 L 84 168 L 84 154 Z M 98 154 L 112 154 L 112 168 L 98 168 L 98 154 Z M 112 154 L 126 154 L 126 168 L 112 168 L 112 154 Z M 126 154 L 140 154 L 140 168 L 126 168 L 126 154 Z M 140 154 L 154 154 L 154 168 L 140 168 L 140 154 Z" stroke-miterlimit="10" stroke-width="0.1" stroke-dasharray=""/><g transform="translate(0,0)"/></g><g transform="translate(266,201.8833351135254)" clip-path="url(#RcQLsMpDJgEG)"><g fill="rgb(0, 0, 0)"><path fill="" stroke="#808080" paint-order="fill stroke markers" d=" M 0 14 L 90.44999694824219 14 M 0 28 L 90.44999694824219 28 M 0 42 L 90.44999694824219 42 M 0 56 L 90.44999694824219 56 M 0 70 L 90.44999694824219 70 M 0 84 L 90.44999694824219 84 M 0 98 L 90.44999694824219 98 M 0 112 L 90.44999694824219 112 M 0 126 L 90.44999694824219 126 M 0 140 L 90.44999694824219 140 M 0 154 L 90.44999694824219 154 M 0 168 L 90.44999694824219 168" stroke-miterlimit="10" stroke-width="0.1" stroke-dasharray=""/><g transform="translate(0,2)"><text fill="" stroke="none" font-family="Helvetica" font-size="12px" font-style="normal" font-weight="normal" text-decoration="normal" x="1" y="7" text-anchor="start" dominant-baseline="central">-1.45</text><text fill="" stroke="none" font-family="Helvetica" font-size="12px" font-style="normal" font-weight="normal" text-decoration="normal" x="1" y="21" text-anchor="start" dominant-baseline="central">-2.65</text><text fill="" stroke="none" font-family="Helvetica" font-size="12px" font-style="normal" font-weight="normal" text-decoration="normal" x="1" y="35" text-anchor="start" dominant-baseline="central">-2.65</text><text fill="" stroke="none" font-family="Helvetica" font-size="12px" font-style="normal" font-weight="normal" text-decoration="normal" x="1" y="49" text-anchor="start" dominant-baseline="central">-2.98</text><text fill="" stroke="none" font-family="Helvetica" font-size="12px" font-style="normal" font-weight="normal" text-decoration="normal" x="1" y="63" text-anchor="start" dominant-baseline="central">-1.92</text><text fill="" stroke="none" font-family="Helvetica" font-size="12px" font-style="normal" font-weight="normal" text-decoration="normal" x="1" y="77" text-anchor="start" dominant-baseline="central">1.44</text><text fill="" stroke="none" font-family="Helvetica" font-size="12px" font-style="normal" font-weight="normal" text-decoration="normal" x="1" y="91" text-anchor="start" dominant-baseline="central">1.04</text><text fill="" stroke="none" font-family="Helvetica" font-size="12px" font-style="normal" font-weight="normal" text-decoration="normal" x="1" y="105" text-anchor="start" dominant-baseline="central">1.09</text><text fill="" stroke="none" font-family="Helvetica" font-size="12px" font-style="normal" font-weight="normal" text-decoration="normal" x="1" y="119" text-anchor="start" dominant-baseline="central">1.42</text><text fill="" stroke="none" font-family="Helvetica" font-size="12px" font-style="normal" font-weight="normal" text-decoration="normal" x="1" y="133" text-anchor="start" dominant-baseline="central">2.04</text><text fill="" stroke="none" font-family="Helvetica" font-size="12px" font-style="normal" font-weight="normal" text-decoration="normal" x="1" y="147" text-anchor="start" dominant-baseline="central">1.12</text><text fill="" stroke="none" font-family="Helvetica" font-size="12px" font-style="normal" font-weight="normal" text-decoration="normal" x="1" y="161" text-anchor="start" dominant-baseline="central">1.96</text></g></g></g><g transform="translate(266,197.8833351135254)"><text fill="rgb(0, 0, 0)" stroke="none" font-family="Helvetica" font-size="11px" font-style="normal" font-weight="normal" text-decoration="normal" x="0" y="0" text-anchor="start" dominant-baseline="text-after-edge">log2FoldChange</text></g><g transform="translate(356.4499969482422,201.8833351135254)" clip-path="url(#GUVbCShwGpPo)"><g fill="rgb(0, 0, 0)"><path fill="" stroke="#808080" paint-order="fill stroke markers" d=" M 0 14 L 84.66666412353516 14 M 0 28 L 84.66666412353516 28 M 0 42 L 84.66666412353516 42 M 0 56 L 84.66666412353516 56 M 0 70 L 84.66666412353516 70 M 0 84 L 84.66666412353516 84 M 0 98 L 84.66666412353516 98 M 0 112 L 84.66666412353516 112 M 0 126 L 84.66666412353516 126 M 0 140 L 84.66666412353516 140 M 0 154 L 84.66666412353516 154 M 0 168 L 84.66666412353516 168" stroke-miterlimit="10" stroke-width="0.1" stroke-dasharray=""/><g transform="translate(0,2)"><text fill="" stroke="none" font-family="Helvetica" font-size="12px" font-style="normal" font-weight="normal" text-decoration="normal" x="1" y="7" text-anchor="start" dominant-baseline="central">106369105.00</text><text fill="" stroke="none" font-family="Helvetica" font-size="12px" font-style="normal" font-weight="normal" text-decoration="normal" x="1" y="21" text-anchor="start" dominant-baseline="central">106400669.00</text><text fill="" stroke="none" font-family="Helvetica" font-size="12px" font-style="normal" font-weight="normal" text-decoration="normal" x="1" y="35" text-anchor="start" dominant-baseline="central">106399191.00</text><text fill="" stroke="none" font-family="Helvetica" font-size="12px" font-style="normal" font-weight="normal" text-decoration="normal" x="1" y="49" text-anchor="start" dominant-baseline="central">106375039.00</text><text fill="" stroke="none" font-family="Helvetica" font-size="12px" font-style="normal" font-weight="normal" text-decoration="normal" x="1" y="63" text-anchor="start" dominant-baseline="central">106444614.00</text><text fill="" stroke="none" font-family="Helvetica" font-size="12px" font-style="normal" font-weight="normal" text-decoration="normal" x="1" y="77" text-anchor="start" dominant-baseline="central">106377486.00</text><text fill="" stroke="none" font-family="Helvetica" font-size="12px" font-style="normal" font-weight="normal" text-decoration="normal" x="1" y="91" text-anchor="start" dominant-baseline="central">106402543.00</text><text fill="" stroke="none" font-family="Helvetica" font-size="12px" font-style="normal" font-weight="normal" text-decoration="normal" x="1" y="105" text-anchor="start" dominant-baseline="central">106369355.00</text><text fill="" stroke="none" font-family="Helvetica" font-size="12px" font-style="normal" font-weight="normal" text-decoration="normal" x="1" y="119" text-anchor="start" dominant-baseline="central">106451560.00</text><text fill="" stroke="none" font-family="Helvetica" font-size="12px" font-style="normal" font-weight="normal" text-decoration="normal" x="1" y="133" text-anchor="start" dominant-baseline="central">106441245.00</text><text fill="" stroke="none" font-family="Helvetica" font-size="12px" font-style="normal" font-weight="normal" text-decoration="normal" x="1" y="147" text-anchor="start" dominant-baseline="central">106422910.00</text><text fill="" stroke="none" font-family="Helvetica" font-size="12px" font-style="normal" font-weight="normal" text-decoration="normal" x="1" y="161" text-anchor="start" dominant-baseline="central">106444176.00</text></g></g></g><g transform="translate(356.4499969482422,197.8833351135254)"><text fill="rgb(0, 0, 0)" stroke="none" font-family="Helvetica" font-size="11px" font-style="normal" font-weight="normal" text-decoration="normal" x="0" y="0" text-anchor="start" dominant-baseline="text-after-edge">id</text></g><g transform="translate(441.11666107177734,201.8833351135254)" clip-path="url(#MMUSmfTwhCJS)"><g fill="rgb(0, 0, 0)"><path fill="" stroke="#808080" paint-order="fill stroke markers" d=" M 0 14 L 302.3666687011719 14 M 0 28 L 302.3666687011719 28 M 0 42 L 302.3666687011719 42 M 0 56 L 302.3666687011719 56 M 0 70 L 302.3666687011719 70 M 0 84 L 302.3666687011719 84 M 0 98 L 302.3666687011719 98 M 0 112 L 302.3666687011719 112 M 0 126 L 302.3666687011719 126 M 0 140 L 302.3666687011719 140 M 0 154 L 302.3666687011719 154 M 0 168 L 302.3666687011719 168" stroke-miterlimit="10" stroke-width="0.1" stroke-dasharray=""/><g transform="translate(0,2)"><text fill="" stroke="none" font-family="Helvetica" font-size="12px" font-style="normal" font-weight="normal" text-decoration="normal" x="1" y="7" text-anchor="start" dominant-baseline="central">NA</text><text fill="" stroke="none" font-family="Helvetica" font-size="12px" font-style="normal" font-weight="normal" text-decoration="normal" x="1" y="21" text-anchor="start" dominant-baseline="central">NA</text><text fill="" stroke="none" font-family="Helvetica" font-size="12px" font-style="normal" font-weight="normal" text-decoration="normal" x="1" y="35" text-anchor="start" dominant-baseline="central">NA</text><text fill="" stroke="none" font-family="Helvetica" font-size="12px" font-style="normal" font-weight="normal" text-decoration="normal" x="1" y="49" text-anchor="start" dominant-baseline="central">uncharacterized protein At4g04980</text><text fill="" stroke="none" font-family="Helvetica" font-size="12px" font-style="normal" font-weight="normal" text-decoration="normal" x="1" y="63" text-anchor="start" dominant-baseline="central">NA</text><text fill="" stroke="none" font-family="Helvetica" font-size="12px" font-style="normal" font-weight="normal" text-decoration="normal" x="1" y="77" text-anchor="start" dominant-baseline="central">phosphoglycerate kinase 1, chloroplastic</text><text fill="" stroke="none" font-family="Helvetica" font-size="12px" font-style="normal" font-weight="normal" text-decoration="normal" x="1" y="91" text-anchor="start" dominant-baseline="central">signal peptidase complex catalytic subunit SEC11C-like</text><text fill="" stroke="none" font-family="Helvetica" font-size="12px" font-style="normal" font-weight="normal" text-decoration="normal" x="1" y="105" text-anchor="start" dominant-baseline="central">defensin-like protein 2</text><text fill="" stroke="none" font-family="Helvetica" font-size="12px" font-style="normal" font-weight="normal" text-decoration="normal" x="1" y="119" text-anchor="start" dominant-baseline="central">S-adenosylmethionine synthase 2</text><text fill="" stroke="none" font-family="Helvetica" font-size="12px" font-style="normal" font-weight="normal" text-decoration="normal" x="1" y="133" text-anchor="start" dominant-baseline="central">auxin-responsive protein IAA9</text><text fill="" stroke="none" font-family="Helvetica" font-size="12px" font-style="normal" font-weight="normal" text-decoration="normal" x="1" y="147" text-anchor="start" dominant-baseline="central">NA</text><text fill="" stroke="none" font-family="Helvetica" font-size="12px" font-style="normal" font-weight="normal" text-decoration="normal" x="1" y="161" text-anchor="start" dominant-baseline="central">NA</text></g></g></g><g transform="translate(441.11666107177734,197.8833351135254)"><text fill="rgb(0, 0, 0)" stroke="none" font-family="Helvetica" font-size="11px" font-style="normal" font-weight="normal" text-decoration="normal" x="0" y="0" text-anchor="start" dominant-baseline="text-after-edge">GENENAME</text></g><g transform="translate(743.4833297729492,201.8833351135254)" clip-path="url(#UJbdqlUAuiTc)"><g fill="rgb(0, 0, 0)"><path fill="" stroke="#808080" paint-order="fill stroke markers" d=" M 0 14 L 237.6999969482422 14 M 0 28 L 237.6999969482422 28 M 0 42 L 237.6999969482422 42 M 0 56 L 237.6999969482422 56 M 0 70 L 237.6999969482422 70 M 0 84 L 237.6999969482422 84 M 0 98 L 237.6999969482422 98 M 0 112 L 237.6999969482422 112 M 0 126 L 237.6999969482422 126 M 0 140 L 237.6999969482422 140 M 0 154 L 237.6999969482422 154 M 0 168 L 237.6999969482422 168" stroke-miterlimit="10" stroke-width="0.1" stroke-dasharray=""/><g transform="translate(0,2)"><text fill="" stroke="none" font-family="Helvetica" font-size="12px" font-style="normal" font-weight="normal" text-decoration="normal" x="1" y="7" text-anchor="start" dominant-baseline="central">NA</text><text fill="" stroke="none" font-family="Helvetica" font-size="12px" font-style="normal" font-weight="normal" text-decoration="normal" x="1" y="21" text-anchor="start" dominant-baseline="central">NA</text><text fill="" stroke="none" font-family="Helvetica" font-size="12px" font-style="normal" font-weight="normal" text-decoration="normal" x="1" y="35" text-anchor="start" dominant-baseline="central">NA</text><text fill="" stroke="none" font-family="Helvetica" font-size="12px" font-style="normal" font-weight="normal" text-decoration="normal" x="1" y="49" text-anchor="start" dominant-baseline="central">chloroplast organization</text><text fill="" stroke="none" font-family="Helvetica" font-size="12px" font-style="normal" font-weight="normal" text-decoration="normal" x="1" y="63" text-anchor="start" dominant-baseline="central">NA</text><text fill="" stroke="none" font-family="Helvetica" font-size="12px" font-style="normal" font-weight="normal" text-decoration="normal" x="1" y="77" text-anchor="start" dominant-baseline="central">glycolytic process</text><text fill="" stroke="none" font-family="Helvetica" font-size="12px" font-style="normal" font-weight="normal" text-decoration="normal" x="1" y="91" text-anchor="start" dominant-baseline="central">signal peptide processing</text><text fill="" stroke="none" font-family="Helvetica" font-size="12px" font-style="normal" font-weight="normal" text-decoration="normal" x="1" y="105" text-anchor="start" dominant-baseline="central">killing of cells of another organism</text><text fill="" stroke="none" font-family="Helvetica" font-size="12px" font-style="normal" font-weight="normal" text-decoration="normal" x="1" y="119" text-anchor="start" dominant-baseline="central">S-adenosylmethionine biosynthetic process</text><text fill="" stroke="none" font-family="Helvetica" font-size="12px" font-style="normal" font-weight="normal" text-decoration="normal" x="1" y="133" text-anchor="start" dominant-baseline="central">regulation of DNA-templated transcription</text><text fill="" stroke="none" font-family="Helvetica" font-size="12px" font-style="normal" font-weight="normal" text-decoration="normal" x="1" y="147" text-anchor="start" dominant-baseline="central">NA</text><text fill="" stroke="none" font-family="Helvetica" font-size="12px" font-style="normal" font-weight="normal" text-decoration="normal" x="1" y="161" text-anchor="start" dominant-baseline="central">NA</text></g></g></g><g transform="translate(743.4833297729492,197.8833351135254)"><text fill="rgb(0, 0, 0)" stroke="none" font-family="Helvetica" font-size="11px" font-style="normal" font-weight="normal" text-decoration="normal" x="0" y="0" text-anchor="start" dominant-baseline="text-after-edge">GOTERM</text></g></g></svg>